<svg width="25" height="30" viewBox="0 0 25 30" fill="none" xmlns="http://www.w3.org/2000/svg">
<g opacity="0.5">
<path fill-rule="evenodd" clip-rule="evenodd" d="M24.9975 11.1669C24.9988 11.3912 24.9406 25.6537 12.7069 29.9644C12.7031 29.9656 12.6994 29.965 12.6956 29.9662C12.6325 29.9875 12.5663 30 12.4988 30C12.4313 30 12.365 29.9875 12.3019 29.9662C12.2981 29.965 12.2944 29.9656 12.2913 29.9644C0.0587635 25.6537 -0.0012367 11.3912 1.33036e-05 11.1669V5C1.33036e-05 4.31125 0.560638 3.74938 1.25001 3.74938H3.53251C3.53751 3.74938 3.54189 3.7525 3.54751 3.7525C3.55314 3.7525 3.55751 3.74938 3.56314 3.74938C9.59876 3.74938 11.8506 0.42625 11.9438 0.284375C12.0594 0.10875 12.2569 0 12.4675 0C12.68 0 12.94 0.108125 13.0556 0.28625C13.1463 0.425625 15.4 3.74938 21.4344 3.74938C21.4406 3.74938 21.445 3.7525 21.4506 3.75312C21.4563 3.7525 21.4613 3.74938 21.4669 3.74938H23.7475C24.4369 3.74938 24.9975 4.31125 24.9975 5V11.1669ZM23.7475 11.1669V5H21.4669C21.4613 5 21.4563 4.99687 21.4506 4.99687C21.445 4.99687 21.4406 5 21.4344 5C16.2506 5 13.5306 2.71812 12.4988 1.58375C11.4675 2.71812 8.74814 5 3.56314 5C3.55751 5 3.55314 4.9975 3.54751 4.99687C3.54189 4.9975 3.53751 5 3.53251 5H1.25001V11.1669C1.25001 11.1675 1.24939 11.1681 1.24939 11.1694C1.24939 11.17 1.25001 11.1713 1.25001 11.1719C1.24876 11.3069 1.29501 24.59 12.4988 28.7044C23.7225 24.5837 23.7488 11.3069 23.7475 11.1719C23.7475 11.1713 23.7481 11.17 23.7481 11.1694C23.7481 11.1681 23.7475 11.1675 23.7475 11.1669ZM15.6663 16.5925L16.2056 19.8988C16.2444 20.1356 16.1444 20.3731 15.9488 20.5106C15.7531 20.6488 15.4956 20.6637 15.2863 20.5469L12.4988 19.0037L9.71189 20.5469C9.61751 20.5994 9.51376 20.625 9.40939 20.625C9.28314 20.625 9.15689 20.5869 9.05001 20.5106C8.85439 20.3738 8.75439 20.1356 8.79251 19.8988L9.33126 16.5925L7.05189 14.2569C6.88814 14.09 6.83189 13.8444 6.90689 13.6225C6.98126 13.4006 7.17314 13.2388 7.40501 13.2031L10.53 12.7256L11.9331 9.73438C12.0356 9.51562 12.2563 9.375 12.4988 9.375C12.7413 9.375 12.9619 9.51562 13.0644 9.73438L14.4675 12.7256L17.5925 13.2031C17.8244 13.2388 18.0163 13.4006 18.0906 13.6225C18.165 13.8444 18.1094 14.09 17.9456 14.2569L15.6663 16.5925ZM13.9494 13.9113C13.7431 13.88 13.5663 13.7475 13.4775 13.5594L12.4988 11.4719L11.52 13.5594C11.4313 13.7475 11.2544 13.88 11.0481 13.9113L8.79626 14.255L10.4463 15.9456C10.585 16.0875 10.6475 16.2869 10.6156 16.4825L10.2331 18.8294L12.1963 17.7425C12.2906 17.6906 12.3944 17.665 12.4988 17.665C12.6031 17.665 12.7075 17.6906 12.8013 17.7425L14.7644 18.8294L14.3819 16.4825C14.35 16.2869 14.4125 16.0875 14.5513 15.9456L16.2013 14.255L13.9494 13.9113Z" fill="white"/>
</g>
</svg>
